<svg xmlns="http://www.w3.org/2000/svg" xmlns:xlink="http://www.w3.org/1999/xlink" width="240" height="240" viewBox="0 0 240 240">
  <defs>
    <linearGradient id="linear-gradient" x1="0.792" y1="0.4" x2="0.474" y2="0.598" gradientUnits="objectBoundingBox">
      <stop offset="0" stop-color="#ab47bc"/>
      <stop offset="1" stop-color="#de5cf5"/>
    </linearGradient>
    <linearGradient id="linear-gradient-2" x1="0.5" x2="0.5" y2="1" gradientUnits="objectBoundingBox">
      <stop offset="0" stop-color="#dd5cf4"/>
      <stop offset="1" stop-color="#ab47bc"/>
    </linearGradient>
    <clipPath id="clip-logo">
      <rect width="240" height="240"/>
    </clipPath>
  </defs>
  <g id="logo" clip-path="url(#clip-logo)">
    <path id="shader" d="M99.848,173.494a48.773,48.773,0,1,1-48.773-48.773,48.772,48.772,0,0,1,48.773,48.773ZM160.4,58.04A48.767,48.767,0,1,0,95.342,97.4c37.38,14.711,46.2,29.55,41.516,69.617a48.767,48.767,0,1,0,65.054-39.361C164.519,112.946,155.693,98.1,160.4,58.04Z" transform="translate(293.025 106.503) rotate(121)" fill="url(#linear-gradient)"/>
    <circle id="Ellipse_7" data-name="Ellipse 7" cx="49" cy="49" r="49" transform="translate(69 12)" fill="url(#linear-gradient-2)"/>
  </g>
</svg>
